<svg xmlns="http://www.w3.org/2000/svg" width="34" height="25" viewBox="0 0 34 25">
  <metadata><?xpacket begin="﻿" id="W5M0MpCehiHzreSzNTczkc9d"?>
<x:xmpmeta xmlns:x="adobe:ns:meta/" x:xmptk="Adobe XMP Core 5.6-c138 79.159824, 2016/09/14-01:09:01        ">
   <rdf:RDF xmlns:rdf="http://www.w3.org/1999/02/22-rdf-syntax-ns#">
      <rdf:Description rdf:about=""/>
   </rdf:RDF>
</x:xmpmeta>
                                                                                                    
                                                                                                    
                                                                                                    
                                                                                                    
                                                                                                    
                                                                                                    
                                                                                                    
                                                                                                    
                                                                                                    
                                                                                                    
                                                                                                    
                                                                                                    
                                                                                                    
                                                                                                    
                                                                                                    
                                                                                                    
                                                                                                    
                                                                                                    
                                                                                                    
                                                                                                    
                           
<?xpacket end="w"?></metadata>
<defs>
    <style>
      .cls-1 {
        fill: #500d1e;
        fill-rule: evenodd;
      }
    </style>
  </defs>
  <path id="vcard" class="cls-1" d="M1052.11,1320.73a7.084,7.084,0,0,0,3.87-1.05l-0.7-1.02a5.317,5.317,0,0,1-3.05.87,3.548,3.548,0,0,1-3.84-3.69,3.866,3.866,0,0,1,4.13-3.92,4.076,4.076,0,0,1,2.06.48,2.92,2.92,0,0,1,1.32,2.52,2.856,2.856,0,0,1-.93,2.2c-0.41.33-1.23,0.58-.98-0.34,0,0,.96-3.54,1.03-3.77h-1.36l-0.12.4a1.281,1.281,0,0,0-1.27-.65c-1.53,0-2.81,1.63-2.81,3.59a1.913,1.913,0,0,0,1.87,2.18,1.874,1.874,0,0,0,1.54-.73,0.946,0.946,0,0,0,1.09.81,3.054,3.054,0,0,0,2.15-.95,3.937,3.937,0,0,0,1.09-2.8c0-2.42-1.91-4.16-4.59-4.16a5.647,5.647,0,0,0-4.23,1.59,5.027,5.027,0,0,0-1.4,3.62,4.812,4.812,0,0,0,1.33,3.44A5.149,5.149,0,0,0,1052.11,1320.73Zm0.54-4.28a1.387,1.387,0,0,1-1.13.93c-0.44,0-.67-0.32-0.67-0.94a4.143,4.143,0,0,1,.46-1.74,1.337,1.337,0,0,1,1.13-.83,0.7,0.7,0,0,1,.67.8A4.4,4.4,0,0,1,1052.65,1316.45Zm-17.66,4.3c0-1.42-.12-2.21,1.35-2.55,1.44-.33,2.86-0.63,2.18-1.9-2.02-3.77-.58-5.9,1.6-5.9,2.13,0,3.61,2.05,1.59,5.9-0.66,1.26.71,1.56,2.18,1.9s1.36,1.13,1.36,2.55h-10.26ZM1029,1304v25h7.88a1.885,1.885,0,1,1,3.77,0h10.7a1.885,1.885,0,1,1,3.77,0H1063v-25h-34Zm30.7,21.67h-2.71a4.59,4.59,0,0,0-7.51,0h-6.96a4.59,4.59,0,0,0-7.51,0h-2.71v-18.34h27.4v18.34Z" transform="translate(-1029 -1304)"/>
</svg>
