<svg xmlns="http://www.w3.org/2000/svg" width="84" height="84" viewBox="0 0 84 84">
  <metadata><?xpacket begin="﻿" id="W5M0MpCehiHzreSzNTczkc9d"?>
<x:xmpmeta xmlns:x="adobe:ns:meta/" x:xmptk="Adobe XMP Core 5.6-c138 79.159824, 2016/09/14-01:09:01        ">
   <rdf:RDF xmlns:rdf="http://www.w3.org/1999/02/22-rdf-syntax-ns#">
      <rdf:Description rdf:about=""/>
   </rdf:RDF>
</x:xmpmeta>
                                                                                                    
                                                                                                    
                                                                                                    
                                                                                                    
                                                                                                    
                                                                                                    
                                                                                                    
                                                                                                    
                                                                                                    
                                                                                                    
                                                                                                    
                                                                                                    
                                                                                                    
                                                                                                    
                                                                                                    
                                                                                                    
                                                                                                    
                                                                                                    
                                                                                                    
                                                                                                    
                           
<?xpacket end="w"?></metadata>
<defs>
    <style>
      .cls-1 {
        fill: #500d1e;
        fill-rule: evenodd;
      }
    </style>
  </defs>
  <path id="hand_wrench" data-name="hand wrench" class="cls-1" d="M711.632,1122.18l4.8-7.19a4,4,0,1,1,6.654,4.44l-4.792,7.19A4,4,0,1,1,711.632,1122.18Zm-6.583-2.39a4.012,4.012,0,0,0,5.554-1.11l4.841-7.26a4.007,4.007,0,1,0-6.664-4.45l-4.84,7.26A4,4,0,0,0,705.049,1119.79Zm24.524,13.82-4.241,6.36a3.68,3.68,0,0,0,6.125,4.08l4.238-6.36A3.678,3.678,0,1,0,729.573,1133.61Zm-10.748-2.94a3.985,3.985,0,1,0,6.633,4.42l4.591-6.89a3.985,3.985,0,1,0-6.632-4.42ZM738.652,1169a8.325,8.325,0,0,1-5.9-2.44l-24.577-25.01c3.808-4.21,1.961-11.47-4.136-12.56l-10.759-1.91-3.7-3.7a10.466,10.466,0,0,0-7.956-3.05,17.688,17.688,0,0,1-17.65-23.44l11.248,11.25c4.386,0.25,11.173-6.53,10.913-10.92l-11.245-11.25a17.684,17.684,0,0,1,23.443,17.65,10.477,10.477,0,0,0,3.049,7.96l0.094,0.09c-4.35,7.29,1.516,12.29,6.321,12.1-0.865,4.14,3.559,8.44,7.357,8.44-0.942,3.64,1.876,7.44,6.261,8.3-1.767,6.38,7.9,13.18,13.5,4.6l9.646,9.64A8.349,8.349,0,0,1,738.652,1169Zm3.1-8.75a3.5,3.5,0,1,0-3.5,3.5A3.5,3.5,0,0,0,741.75,1160.25Zm-33.708-13.79c-2.335-2.4-5.954-2.58-12.544-3.02a1.529,1.529,0,0,0-1.7,1.55l-1.6,14.73s9.779,6.61,13.79,9.28c3.724-6.72,9.446-7.13,13.723-10.51Zm-5.678-5.92c5.1,0,5.874-7.22,1.061-8.08-18.1-3.21-17.147-3.11-17.742-3.11a4.688,4.688,0,0,0-4.581,3.77l-1.561,13.82a5.641,5.641,0,0,0,2.215,5.36c1.705,1.24,7.092,5.07,7.092,5.07s1.148-9.92,1.47-12.78,1.928-4.82,4.984-4.67C695.624,1139.93,701.808,1140.54,702.364,1140.54Z" transform="translate(-663 -1085)"/>
</svg>
