<svg id="LOGO" xmlns="http://www.w3.org/2000/svg" width="116.25" height="104.063" viewBox="0 0 116.25 104.063">
  <metadata><?xpacket begin="﻿" id="W5M0MpCehiHzreSzNTczkc9d"?>
<x:xmpmeta xmlns:x="adobe:ns:meta/" x:xmptk="Adobe XMP Core 5.6-c138 79.159824, 2016/09/14-01:09:01        ">
   <rdf:RDF xmlns:rdf="http://www.w3.org/1999/02/22-rdf-syntax-ns#">
      <rdf:Description rdf:about=""/>
   </rdf:RDF>
</x:xmpmeta>
                                                                                                    
                                                                                                    
                                                                                                    
                                                                                                    
                                                                                                    
                                                                                                    
                                                                                                    
                                                                                                    
                                                                                                    
                                                                                                    
                                                                                                    
                                                                                                    
                                                                                                    
                                                                                                    
                                                                                                    
                                                                                                    
                                                                                                    
                                                                                                    
                                                                                                    
                                                                                                    
                           
<?xpacket end="w"?></metadata>
<defs>
    <style>
      .cls-1 {
        fill: #500d1e;
        fill-rule: evenodd;
      }
    </style>
  </defs>
  <path id="People_matter_to_us._copy" data-name="People matter to us. copy" class="cls-1" d="M546.109,126.636v6.3h1.422v-1.8h1.252a2.206,2.206,0,0,0,2.52-2.314c0-1.4-.918-2.187-2.52-2.187h-2.674Zm1.422,1.179h1.179a1.079,1.079,0,1,1,0,2.134h-1.179v-2.134Zm7.452,0.234a2.472,2.472,0,1,0,.036,4.943,2.7,2.7,0,0,0,2.071-.856l-0.729-.738a1.717,1.717,0,0,1-1.225.513,1.237,1.237,0,0,1-1.251-.972h3.475C557.477,129.174,556.685,128.049,554.983,128.049Zm-1.125,2.071a1.136,1.136,0,0,1,1.134-1.054,1.012,1.012,0,0,1,1.072,1.054h-2.206Zm7.326-2.071a2.474,2.474,0,1,0,2.593,2.467A2.4,2.4,0,0,0,561.184,128.049Zm0,1.152a1.339,1.339,0,1,1-1.206,1.333A1.215,1.215,0,0,1,561.184,129.2Zm7.191-1.152a1.794,1.794,0,0,0-1.53.756v-0.711h-1.386v6.59h1.386v-2.449a1.833,1.833,0,0,0,1.557.757,2.222,2.222,0,0,0,2.251-2.449A2.265,2.265,0,0,0,568.375,128.049Zm-0.324,3.79a1.345,1.345,0,1,1,1.2-1.341A1.217,1.217,0,0,1,568.051,131.839Zm5.67,1.1v-6.679h-1.387v6.679h1.387Zm4.185-4.888a2.472,2.472,0,1,0,.036,4.943,2.7,2.7,0,0,0,2.071-.856l-0.73-.738a1.717,1.717,0,0,1-1.224.513,1.237,1.237,0,0,1-1.251-.972h3.475C580.4,129.174,579.607,128.049,577.906,128.049Zm-1.125,2.071a1.136,1.136,0,0,1,1.134-1.054,1.012,1.012,0,0,1,1.071,1.054h-2.205Zm14.437-2.08a1.77,1.77,0,0,0-1.746,1.116,1.611,1.611,0,0,0-1.639-1.116,1.789,1.789,0,0,0-1.638.891v-0.837h-1.387v4.843H586.2v-2.394a1.11,1.11,0,0,1,1.08-1.234,0.889,0.889,0,0,1,.927.991v2.637h1.378v-2.394a1.108,1.108,0,0,1,1.071-1.234,0.891,0.891,0,0,1,.936.991v2.637h1.378V129.9A1.681,1.681,0,0,0,591.218,128.04Zm6.47,4.9h1.359l-0.009-3.159c-0.009-1.09-.756-1.738-2.052-1.738a4.541,4.541,0,0,0-2.188.558l0.432,0.955a3.056,3.056,0,0,1,1.441-.424,0.83,0.83,0,0,1,1.008.811v0.09h-1.333c-1.188.009-1.845,0.549-1.845,1.458A1.5,1.5,0,0,0,596.166,133a1.864,1.864,0,0,0,1.522-.631v0.567Zm-1.134-.927a0.648,0.648,0,0,1-.757-0.612c0-.387.261-0.549,0.793-0.549h1.089v0.432A1.071,1.071,0,0,1,596.554,132.01Zm7.119-.36a1.611,1.611,0,0,1-.648.18,0.448,0.448,0,0,1-.469-0.558v-2h1.315V128.31h-1.315v-1.332h-1.377v1.332H600.5v0.954h0.675v2.242A1.4,1.4,0,0,0,602.7,133a2.569,2.569,0,0,0,1.261-.334Zm4.554,0a1.611,1.611,0,0,1-.648.18,0.447,0.447,0,0,1-.469-0.558v-2h1.315V128.31H607.11v-1.332h-1.377v1.332h-0.675v0.954h0.675v2.242a1.4,1.4,0,0,0,1.521,1.5,2.569,2.569,0,0,0,1.261-.334Zm3.888-3.6a2.472,2.472,0,1,0,.036,4.943,2.7,2.7,0,0,0,2.07-.856l-0.729-.738a1.717,1.717,0,0,1-1.225.513,1.237,1.237,0,0,1-1.251-.972h3.475C614.608,129.174,613.816,128.049,612.115,128.049Zm-1.126,2.071a1.136,1.136,0,0,1,1.134-1.054,1.012,1.012,0,0,1,1.072,1.054h-2.206Zm6.525-2.026h-1.386v4.843h1.386v-2.331a1.29,1.29,0,0,1,1.6-1.261V128.04a1.762,1.762,0,0,0-1.6.927v-0.873Zm8.676,3.556a1.611,1.611,0,0,1-.648.18,0.447,0.447,0,0,1-.468-0.558v-2h1.314V128.31h-1.314v-1.332H623.7v1.332h-0.676v0.954H623.7v2.242a1.4,1.4,0,0,0,1.521,1.5,2.568,2.568,0,0,0,1.26-.334Zm4-3.6a2.474,2.474,0,1,0,2.593,2.467A2.4,2.4,0,0,0,630.186,128.049Zm0,1.152a1.339,1.339,0,1,1-1.206,1.333A1.215,1.215,0,0,1,630.186,129.2Zm11.719-1.107h-1.378v2.4a1.107,1.107,0,0,1-1.071,1.233,0.876,0.876,0,0,1-.909-0.981v-2.647H637.16v3.043a1.677,1.677,0,0,0,1.747,1.855,1.718,1.718,0,0,0,1.62-.91v0.855h1.378v-4.843Zm3.7-.063a1.641,1.641,0,0,0-1.909,1.512c0,1.7,2.512,1.288,2.512,2.062,0,0.261-.261.378-0.612,0.378a2.923,2.923,0,0,1-1.684-.6l-0.45.936a3.384,3.384,0,0,0,2.1.676c1.1,0,1.971-.523,1.971-1.513,0.009-1.71-2.547-1.341-2.547-2.071,0-.252.234-0.36,0.558-0.36a3.275,3.275,0,0,1,1.476.468l0.477-.945A3.611,3.611,0,0,0,645.6,128.031Zm3.959,3.556a0.676,0.676,0,0,0-.693.711,0.694,0.694,0,1,0,1.387,0A0.671,0.671,0,0,0,649.562,131.587Z" transform="translate(-540.375 -30.625)"/>
  <path id="ABC_Co._copy" data-name="ABC Co. copy" class="cls-1" d="M554.34,116.363l0.909,2.575h6.423l-7.411-18.227h-6.188l-7.7,18.227h6.188l0.936-2.575h6.839Zm-1.483-4.316h-3.8l1.924-5.33Zm11.934-11.336v18.227h9.672c4.446,0,7.333-2,7.333-5.123a4.569,4.569,0,0,0-3.615-4.6,4.1,4.1,0,0,0,3.068-3.9c0-2.782-2.834-4.6-7.228-4.6h-9.23Zm6.006,4.42h2.886a1.245,1.245,0,0,1,1.378,1.274,1.27,1.27,0,0,1-1.378,1.326H570.8v-2.6Zm0,6.6h2.886c1.118,0,1.846.52,1.846,1.326a1.579,1.579,0,0,1-1.846,1.456H570.8v-2.782Zm23.868-11.206c-5.72,0-9.88,3.9-9.88,9.256,0,5.434,4.056,9.412,9.646,9.412a11.312,11.312,0,0,0,7.931-3.64l-3.485-3.718a6.214,6.214,0,0,1-4.134,2.08c-2.184,0-3.77-1.768-3.77-4.212a3.844,3.844,0,0,1,3.77-4.16,5.6,5.6,0,0,1,4.134,2.444l3.485-4.134A10.965,10.965,0,0,0,594.665,100.529Zm27.482,0c-5.72,0-9.88,3.9-9.88,9.256,0,5.434,4.056,9.412,9.646,9.412a11.308,11.308,0,0,0,7.93-3.64l-3.484-3.718a6.214,6.214,0,0,1-4.134,2.08c-2.184,0-3.77-1.768-3.77-4.212a3.844,3.844,0,0,1,3.77-4.16,5.6,5.6,0,0,1,4.134,2.444l3.484-4.134A10.96,10.96,0,0,0,622.147,100.529Zm17.862,3.978c-4.888,0-8.035,2.86-8.035,7.306s3.147,7.333,8.035,7.333,8.034-2.887,8.034-7.333S644.9,104.507,640.009,104.507Zm0,4.628c1.3,0,2.132,1.092,2.132,2.756s-0.832,2.756-2.132,2.756-2.132-1.092-2.132-2.756S638.709,109.135,640.009,109.135Zm13.935,4.68a2.666,2.666,0,1,0,2.678,2.652A2.539,2.539,0,0,0,653.944,113.815Z" transform="translate(-540.375 -30.625)"/>
  <path id="logo-2" data-name="logo" class="cls-1" d="M622.061,66.688l-4.225-15.545L626.59,48.3a31.148,31.148,0,0,0-56.232.107l8.8,2.733-4.225,15.545L567.3,64.693a31.347,31.347,0,0,0,62.4,0Zm-38.547,4.8a1.835,1.835,0,0,1-.393-2.566l2.1-2.829a1.835,1.835,0,0,1,2.958,2.174l-2.1,2.826A1.905,1.905,0,0,1,583.514,71.485Zm3.7,2.7a1.814,1.814,0,0,1-.406-2.543l2.112-2.85a1.833,1.833,0,0,1,2.953,2.171l-2.111,2.852A1.876,1.876,0,0,1,587.216,74.189Zm3.708,2.7a1.839,1.839,0,0,1-.393-2.569l2.093-2.824a1.835,1.835,0,1,1,2.959,2.171L593.49,76.5A1.905,1.905,0,0,1,590.924,76.893Zm8.364-.523-2.1,2.839a1.9,1.9,0,0,1-2.564.393,1.833,1.833,0,0,1-.395-2.564l2.1-2.839A1.833,1.833,0,0,1,599.288,76.37Zm1.932,3.643a2.546,2.546,0,0,1-1.173-.294A17.322,17.322,0,0,0,601.885,77l0.414,0.413C603.565,78.684,602.629,80.013,601.22,80.013Zm12.8-7.745a1.833,1.833,0,0,1-2.6,0L606.157,67a0.459,0.459,0,0,0-.647.65l4.875,4.878a1.835,1.835,0,0,1-2.6,2.595l-3.96-3.962a0.46,0.46,0,0,0-.65.65l3.286,3.289a1.835,1.835,0,1,1-2.592,2.6l-1.7-1.7a4.4,4.4,0,0,0-3.978-5.127,4.439,4.439,0,0,0-3.7-2.7,4.446,4.446,0,0,0-3.7-2.7,4.44,4.44,0,0,0-7.67-.913L581.982,66.1a31.391,31.391,0,0,0-3.871-1.147l3.31-12.181c4.937-.044,8.829-4.724,13.387-1.843a16.865,16.865,0,0,1-4.563,4.4,3.692,3.692,0,0,0-1.716,4.2,5.139,5.139,0,0,0,5.117,3.52c3.245,0,6.6-2.665,9.154-4.579,1.5,1.5,9.961,9.815,11.219,11.206A1.836,1.836,0,0,1,614.017,72.267Zm1.287-5.08s-8.125-8.018-10.538-10.434c-1.29-1.285-2.179-1.461-3.666-.263a23.527,23.527,0,0,1-5.92,3.674c-3.357,1.175-5.19-1.682-3.63-2.6,3.172-1.848,4.717-4.516,7.382-7.535a3.227,3.227,0,0,1,2.519-1.147,6.434,6.434,0,0,1,2.847.811c3.944,2.038,7.532,3.429,11.313,3.151l3.369,12.4A31.8,31.8,0,0,0,615.3,67.187Z" transform="translate(-540.375 -30.625)"/>
</svg>
