<svg id="LOGO_footer" data-name="LOGO footer" xmlns="http://www.w3.org/2000/svg" width="151.122" height="135.28" viewBox="0 0 151.122 135.28">
  <metadata><?xpacket begin="﻿" id="W5M0MpCehiHzreSzNTczkc9d"?>
<x:xmpmeta xmlns:x="adobe:ns:meta/" x:xmptk="Adobe XMP Core 5.6-c138 79.159824, 2016/09/14-01:09:01        ">
   <rdf:RDF xmlns:rdf="http://www.w3.org/1999/02/22-rdf-syntax-ns#">
      <rdf:Description rdf:about=""/>
   </rdf:RDF>
</x:xmpmeta>
                                                                                                    
                                                                                                    
                                                                                                    
                                                                                                    
                                                                                                    
                                                                                                    
                                                                                                    
                                                                                                    
                                                                                                    
                                                                                                    
                                                                                                    
                                                                                                    
                                                                                                    
                                                                                                    
                                                                                                    
                                                                                                    
                                                                                                    
                                                                                                    
                                                                                                    
                                                                                                    
                           
<?xpacket end="w"?></metadata>
<defs>
    <style>
      .cls-1 {
        fill: #4d9258;
        fill-rule: evenodd;
      }
    </style>
  </defs>
  <path id="People_matter_to_us._copy" data-name="People matter to us. copy" class="cls-1" d="M939.391,1938.83v8.19h1.85v-2.34h1.626c2.083,0,3.277-1.1,3.277-3.01,0-1.81-1.194-2.84-3.277-2.84h-3.476Zm1.85,1.53h1.533a1.406,1.406,0,1,1,0,2.78h-1.533v-2.78Zm9.687,0.31a3.211,3.211,0,1,0,.047,6.42,3.518,3.518,0,0,0,2.692-1.11l-0.948-.96a2.248,2.248,0,0,1-1.592.67,1.611,1.611,0,0,1-1.627-1.27h4.518C954.17,1942.13,953.14,1940.67,950.928,1940.67Zm-1.463,2.69a1.478,1.478,0,0,1,1.475-1.37,1.316,1.316,0,0,1,1.393,1.37h-2.868Zm9.525-2.69a3.214,3.214,0,1,0,3.37,3.2A3.11,3.11,0,0,0,958.99,1940.67Zm0,1.49a1.744,1.744,0,1,1-1.569,1.74A1.585,1.585,0,0,1,958.99,1942.16Zm9.348-1.49a2.337,2.337,0,0,0-1.99.98v-0.92h-1.8v8.56h1.8v-3.18a2.386,2.386,0,0,0,2.025.98,2.884,2.884,0,0,0,2.926-3.18A2.945,2.945,0,0,0,968.338,1940.67Zm-0.421,4.92a1.745,1.745,0,1,1,1.556-1.74A1.58,1.58,0,0,1,967.917,1945.59Zm7.37,1.43v-8.68h-1.8v8.68h1.8Zm5.441-6.35a3.211,3.211,0,1,0,.047,6.42,3.516,3.516,0,0,0,2.691-1.11l-0.948-.96a2.246,2.246,0,0,1-1.591.67,1.61,1.61,0,0,1-1.627-1.27h4.517C983.97,1942.13,982.94,1940.67,980.728,1940.67Zm-1.463,2.69a1.478,1.478,0,0,1,1.474-1.37,1.316,1.316,0,0,1,1.393,1.37h-2.867Zm18.769-2.7a2.3,2.3,0,0,0-2.271,1.45,2.083,2.083,0,0,0-2.13-1.45,2.321,2.321,0,0,0-2.13,1.15v-1.08h-1.8v6.29h1.8v-3.11a1.44,1.44,0,0,1,1.4-1.6,1.152,1.152,0,0,1,1.206,1.28v3.43h1.79v-3.11a1.438,1.438,0,0,1,1.393-1.6,1.155,1.155,0,0,1,1.217,1.28v3.43h1.787v-3.95A2.178,2.178,0,0,0,998.034,1940.66Zm8.406,6.36h1.77l-0.01-4.11c-0.01-1.41-.98-2.25-2.67-2.25a5.845,5.845,0,0,0-2.84.72l0.56,1.24a4,4,0,0,1,1.87-.55,1.078,1.078,0,0,1,1.31,1.05v0.12h-1.73c-1.54.01-2.4,0.72-2.4,1.9a1.952,1.952,0,0,0,2.17,1.96,2.4,2.4,0,0,0,1.97-.82v0.74Zm-1.47-1.2a0.842,0.842,0,0,1-.98-0.8c0-.5.34-0.71,1.03-0.71h1.41v0.56A1.385,1.385,0,0,1,1004.97,1945.82Zm9.25-.47a2.049,2.049,0,0,1-.84.23,0.583,0.583,0,0,1-.61-0.72v-2.6h1.71v-1.25h-1.71v-1.74h-1.79v1.74h-0.87v1.24h0.87v2.91a1.816,1.816,0,0,0,1.98,1.94,3.339,3.339,0,0,0,1.64-.43Zm5.92,0a2.049,2.049,0,0,1-.84.23,0.583,0.583,0,0,1-.61-0.72v-2.6h1.71v-1.25h-1.71v-1.74h-1.79v1.74h-0.87v1.24h0.87v2.91a1.816,1.816,0,0,0,1.98,1.94,3.339,3.339,0,0,0,1.64-.43Zm5.06-4.68a3.211,3.211,0,1,0,.05,6.42,3.519,3.519,0,0,0,2.69-1.11l-0.95-.96a2.251,2.251,0,0,1-1.59.67,1.611,1.611,0,0,1-1.63-1.27h4.52C1028.44,1942.13,1027.41,1940.67,1025.2,1940.67Zm-1.46,2.69a1.47,1.47,0,0,1,1.47-1.37,1.312,1.312,0,0,1,1.39,1.37h-2.86Zm8.48-2.63h-1.8v6.29h1.8v-3.03a1.678,1.678,0,0,1,2.08-1.64v-1.69a2.286,2.286,0,0,0-2.08,1.2v-1.13Zm11.28,4.62a2.13,2.13,0,0,1-.85.23,0.578,0.578,0,0,1-.6-0.72v-2.6h1.71v-1.25h-1.71v-1.74h-1.79v1.74h-0.88v1.24h0.88v2.91a1.808,1.808,0,0,0,1.97,1.94,3.339,3.339,0,0,0,1.64-.43Zm5.19-4.68a3.214,3.214,0,1,0,3.37,3.2A3.11,3.11,0,0,0,1048.69,1940.67Zm0,1.49a1.744,1.744,0,1,1-1.57,1.74A1.583,1.583,0,0,1,1048.69,1942.16Zm15.24-1.43h-1.79v3.11a1.441,1.441,0,0,1-1.4,1.6,1.139,1.139,0,0,1-1.18-1.27v-3.44h-1.8v3.95a2.177,2.177,0,0,0,2.27,2.41,2.234,2.234,0,0,0,2.11-1.18v1.11h1.79v-6.29Zm4.8-.09c-1.37,0-2.48.67-2.48,1.97,0,2.21,3.27,1.67,3.27,2.68,0,0.34-.34.49-0.8,0.49a3.828,3.828,0,0,1-2.19-.78l-0.58,1.21a4.355,4.355,0,0,0,2.73.88c1.42,0,2.56-.68,2.56-1.96,0.01-2.23-3.31-1.75-3.31-2.7,0-.32.3-0.46,0.72-0.46a4.3,4.3,0,0,1,1.92.6l0.62-1.22A4.647,4.647,0,0,0,1068.73,1940.64Zm5.15,4.63a0.877,0.877,0,0,0-.9.92,0.9,0.9,0,0,0,.9.94,0.888,0.888,0,0,0,.9-0.94A0.866,0.866,0,0,0,1073.88,1945.27Z" transform="translate(-931.938 -1814)"/>
  <path id="ABC_Co._copy" data-name="ABC Co. copy" class="cls-1" d="M950.091,1925.48l1.183,3.34h8.349l-9.633-23.69h-8.045l-10,23.69h8.045l1.217-3.34h8.889Zm-1.926-5.62H943.23l2.5-6.92Zm15.513-14.73v23.69h12.574c5.78,0,9.532-2.6,9.532-6.66a5.938,5.938,0,0,0-4.7-5.98,5.329,5.329,0,0,0,3.988-5.07c0-3.62-3.684-5.98-9.4-5.98h-12Zm7.808,5.74h3.752a1.623,1.623,0,0,1,1.792,1.66,1.647,1.647,0,0,1-1.792,1.72h-3.752v-3.38Zm0,8.59h3.752c1.454,0,2.4.67,2.4,1.72,0,1.15-.946,1.9-2.4,1.9h-3.752v-3.62Zm31.024-14.57c-7.431,0-12.84,5.07-12.84,12.03,0,7.07,5.273,12.24,12.54,12.24a14.72,14.72,0,0,0,10.31-4.73l-4.53-4.84a8.052,8.052,0,0,1-5.37,2.71c-2.843,0-4.9-2.3-4.9-5.48,0-3.14,2.062-5.41,4.9-5.41a7.276,7.276,0,0,1,5.37,3.18l4.53-5.37A14.236,14.236,0,0,0,1002.51,1904.89Zm35.73,0c-7.44,0-12.84,5.07-12.84,12.03,0,7.07,5.27,12.24,12.54,12.24a14.72,14.72,0,0,0,10.31-4.73l-4.53-4.84a8.093,8.093,0,0,1-5.38,2.71c-2.84,0-4.9-2.3-4.9-5.48,0-3.14,2.06-5.41,4.9-5.41a7.276,7.276,0,0,1,5.38,3.18l4.53-5.37A14.255,14.255,0,0,0,1038.24,1904.89Zm23.22,5.17c-6.35,0-10.44,3.72-10.44,9.5s4.09,9.53,10.44,9.53,10.45-3.75,10.45-9.53S1067.82,1910.06,1061.46,1910.06Zm0,6.02c1.69,0,2.77,1.42,2.77,3.58s-1.08,3.58-2.77,3.58-2.77-1.41-2.77-3.58S1059.77,1916.08,1061.46,1916.08Zm18.12,6.08a3.465,3.465,0,1,0,3.48,3.45A3.3,3.3,0,0,0,1079.58,1922.16Z" transform="translate(-931.938 -1814)"/>
  <path id="logo" class="cls-1" d="M1038.13,1860.9l-5.49-20.21,11.38-3.69a40.492,40.492,0,0,0-73.105.14l11.445,3.55-5.493,20.21-9.927-2.6a40.75,40.75,0,0,0,81.12,0Zm-50.112,6.23a2.38,2.38,0,0,1-.511-3.33l2.725-3.68a2.388,2.388,0,0,1,3.846,2.83l-2.728,3.67A2.47,2.47,0,0,1,988.018,1867.13Zm4.813,3.52a2.364,2.364,0,0,1-.528-3.31l2.745-3.7a2.382,2.382,0,0,1,3.84,2.82l-2.745,3.71A2.432,2.432,0,0,1,992.831,1870.65Zm4.82,3.51a2.391,2.391,0,0,1-.511-3.34l2.721-3.67a2.389,2.389,0,1,1,3.849,2.83l-2.72,3.67A2.479,2.479,0,0,1,997.651,1874.16Zm10.869-.68-2.72,3.69a2.478,2.478,0,0,1-3.34.52,2.4,2.4,0,0,1-.51-3.34l2.73-3.69a2.39,2.39,0,0,1,3.34-.5A2.359,2.359,0,0,1,1008.52,1873.48Zm2.52,4.74a3.351,3.351,0,0,1-1.53-.38,22.216,22.216,0,0,0,2.39-3.53l0.54,0.54C1014.08,1876.49,1012.87,1878.22,1011.04,1878.22Zm16.63-10.07a2.384,2.384,0,0,1-3.37,0l-6.85-6.84a0.582,0.582,0,0,0-.82-0.02,0.6,0.6,0,0,0-.02.86l6.34,6.34a2.383,2.383,0,1,1-3.37,3.37l-5.15-5.15a0.6,0.6,0,0,0-.85.85l4.28,4.27a2.386,2.386,0,0,1-3.37,3.38l-2.21-2.21a61.209,61.209,0,0,0-14.795-13.69,5.775,5.775,0,0,0-9.971-1.19l-1.487,2.01a42.34,42.34,0,0,0-5.033-1.49l4.3-15.83c6.418-.06,11.478-6.14,17.4-2.4-1.94,2.4-3.532,4.32-5.932,5.72a4.794,4.794,0,0,0-2.23,5.46,6.679,6.679,0,0,0,6.652,4.57c4.22,0,8.58-3.46,11.9-5.95,1.95,1.95,12.95,12.76,14.59,14.57A2.393,2.393,0,0,1,1027.67,1868.15Zm1.67-6.6s-10.56-10.43-13.69-13.57c-1.68-1.67-2.84-1.9-4.77-.34a30.509,30.509,0,0,1-7.7,4.78c-4.36,1.52-6.743-2.19-4.715-3.38,4.125-2.4,6.135-5.87,9.595-9.8a4.233,4.233,0,0,1,3.28-1.49,8.4,8.4,0,0,1,3.7,1.06c5.12,2.65,9.79,4.46,14.7,4.1l4.38,16.11A41.222,41.222,0,0,0,1029.34,1861.55Z" transform="translate(-931.938 -1814)"/>
</svg>
